<svg width="22" height="22" viewBox="0 0 22 22" fill="none" xmlns="http://www.w3.org/2000/svg">
<path d="M9.64044 3.50581C9.99898 2.40233 11.5601 2.40233 11.9187 3.50581L12.9308 6.62087C13.0911 7.11437 13.551 7.44848 14.0699 7.44848H17.3453C18.5055 7.44848 18.988 8.93321 18.0493 9.61519L15.3995 11.5404C14.9797 11.8454 14.804 12.386 14.9644 12.8795L15.9765 15.9946C16.335 17.0981 15.0721 18.0157 14.1334 17.3337L11.4836 15.4085C11.0638 15.1035 10.4953 15.1035 10.0755 15.4085L7.42571 17.3337C6.48703 18.0157 5.22405 17.0981 5.58259 15.9946L6.59474 12.8795C6.75509 12.386 6.57943 11.8454 6.15964 11.5404L3.50981 9.61519C2.57113 8.93321 3.05355 7.44848 4.21381 7.44848H7.48919C8.00808 7.44848 8.46795 7.11437 8.62829 6.62087L9.64044 3.50581Z" fill="#FAA032"/>
</svg>
